<svg id="Layer_1" data-name="Layer 1" xmlns="http://www.w3.org/2000/svg" viewBox="0 0 560 560">
<defs><style>.cls-1{fill:#fff;}.cls-2{fill:#c060a1;}.cls-3{fill:#3b185f;}.cls-4{fill:#00005c;}</style></defs>
<path class="cls-1" d="M204.17,0H560a0,0,0,0,1,0,0V356.82A203.18,203.18,0,0,1,356.82,560H0a0,0,0,0,1,0,0V204.17A204.17,204.17,0,0,1,204.17,0Z"/><path class="cls-2" d="M66.26,280H405.41A104.92,104.92,0,0,1,510.33,384.92v0a18.24,18.24,0,0,1-18.24,18.24H152.94A104.92,104.92,0,0,1,48,298.24v0A18.24,18.24,0,0,1,66.26,280Z"/><path class="cls-3" d="M66.26,97.12H405.41A104.92,104.92,0,0,1,510.33,202v0a18.24,18.24,0,0,1-18.24,18.24H152.94A104.92,104.92,0,0,1,48,115.36v0A18.24,18.24,0,0,1,66.26,97.12Z"/><path class="cls-4" d="M66.26,218.42H405.41A104.92,104.92,0,0,1,510.33,323.34v0a18.24,18.24,0,0,1-18.24,18.24H152.94A104.92,104.92,0,0,1,48,236.66v0a18.24,18.24,0,0,1,18.24-18.24Z" transform="translate(559.18 0.82) rotate(90)"/></svg>